<svg id="svg" version="1.1" xmlns="http://www.w3.org/2000/svg" xmlns:xlink="http://www.w3.org/1999/xlink" width="400" height="403.2520325203252" viewBox="0, 0, 400,403.2520325203252"><g id="svgg"><path id="path0" d="M194.719 74.772 C 179.573 79.615,175.000 98.539,186.390 109.237 C 201.660 123.578,224.245 110.384,220.364 89.390 C 218.407 78.803,205.364 71.369,194.719 74.772 M184.292 122.415 C 172.890 124.333,163.396 133.179,159.814 145.222 C 159.262 147.080,158.101 151.210,157.234 154.400 C 156.367 157.590,154.585 163.440,153.274 167.400 C 151.963 171.360,150.774 175.140,150.631 175.800 C 150.294 177.359,147.514 186.293,145.777 191.400 C 141.381 204.324,141.485 209.486,146.201 212.401 C 151.539 215.700,157.374 212.277,158.337 205.282 C 158.624 203.202,159.085 201.824,159.942 200.482 C 160.819 199.110,161.217 197.896,161.411 196.000 C 161.564 194.504,162.156 192.349,162.806 190.926 C 163.426 189.565,164.245 187.045,164.625 185.326 C 165.004 183.606,165.838 180.888,166.477 179.285 C 167.127 177.653,167.797 174.981,167.999 173.213 C 168.223 171.246,168.733 169.317,169.351 168.097 C 169.896 167.021,170.627 164.642,170.974 162.811 C 171.616 159.427,174.249 152.808,175.674 150.997 C 178.917 146.874,181.711 155.130,178.865 160.428 C 178.207 161.654,177.451 163.814,177.185 165.228 C 176.919 166.643,176.079 169.206,175.318 170.924 C 174.267 173.296,173.852 174.913,173.596 177.638 C 173.339 180.378,173.011 181.652,172.209 183.020 C 171.632 184.006,170.898 186.204,170.579 187.906 C 170.260 189.608,169.471 192.170,168.825 193.600 C 168.180 195.030,167.453 197.324,167.209 198.698 C 166.965 200.072,166.322 202.375,165.780 203.815 C 165.238 205.256,164.516 208.091,164.175 210.117 C 163.786 212.434,163.060 214.839,162.218 216.600 C 161.482 218.140,160.754 220.300,160.601 221.400 C 160.448 222.500,159.902 224.403,159.387 225.628 C 158.872 226.853,157.979 229.733,157.402 232.028 C 156.826 234.323,155.824 237.867,155.177 239.905 C 152.458 248.462,152.559 248.542,166.413 248.800 C 179.398 249.042,179.488 249.072,179.273 253.046 C 178.870 260.493,178.813 321.667,179.206 324.000 C 180.788 333.373,194.308 334.998,196.776 326.111 C 197.495 323.521,197.354 125.943,196.632 124.215 C 195.758 122.124,190.545 121.363,184.292 122.415 M206.437 122.495 C 205.688 122.773,204.698 123.508,204.237 124.129 L 203.400 125.259 203.400 224.729 L 203.400 324.200 204.542 326.400 C 209.192 335.358,220.378 335.109,225.272 325.938 L 226.200 324.200 226.400 240.200 C 226.612 151.077,226.519 155.006,228.436 153.981 C 229.477 153.423,231.043 154.362,231.670 155.921 C 231.972 156.669,232.080 165.821,232.024 185.800 C 231.939 216.486,231.986 217.360,233.876 220.102 C 237.079 224.748,244.110 224.719,247.394 220.047 L 248.600 218.331 248.719 182.866 C 248.801 158.411,248.703 146.690,248.401 145.112 C 246.371 134.478,237.258 125.355,226.258 122.945 C 222.404 122.101,208.362 121.782,206.437 122.495 " stroke="none" fill="#f9f6f6" fill-rule="evenodd"></path><path id="path1" d="M0.000 201.600 L 0.000 403.200 200.000 403.200 L 400.000 403.200 400.000 201.600 L 400.000 0.000 200.000 0.000 L 0.000 0.000 0.000 201.600 M206.910 74.973 C 226.790 81.989,225.049 110.503,204.480 114.761 C 188.297 118.111,174.548 100.336,182.040 85.748 C 186.902 76.279,197.546 71.668,206.910 74.973 M194.532 122.430 C 197.423 123.233,197.200 114.657,197.198 225.087 C 197.195 330.812,197.278 326.572,195.181 328.960 C 190.042 334.813,180.532 331.860,179.206 324.000 C 178.813 321.667,178.870 260.493,179.273 253.046 C 179.488 249.072,179.398 249.042,166.413 248.800 C 152.559 248.542,152.458 248.462,155.177 239.905 C 155.824 237.867,156.826 234.323,157.402 232.028 C 157.979 229.733,158.872 226.853,159.387 225.628 C 159.902 224.403,160.448 222.500,160.601 221.400 C 160.754 220.300,161.482 218.140,162.218 216.600 C 163.060 214.839,163.786 212.434,164.175 210.117 C 164.516 208.091,165.238 205.256,165.780 203.815 C 166.322 202.375,166.965 200.072,167.209 198.698 C 167.453 197.324,168.180 195.030,168.825 193.600 C 169.471 192.170,170.260 189.608,170.579 187.906 C 170.898 186.204,171.632 184.006,172.209 183.020 C 173.011 181.652,173.339 180.378,173.596 177.638 C 173.852 174.913,174.267 173.296,175.318 170.924 C 176.079 169.206,176.919 166.643,177.185 165.228 C 177.451 163.814,178.207 161.654,178.865 160.428 C 181.711 155.130,178.917 146.874,175.674 150.997 C 174.249 152.808,171.616 159.427,170.974 162.811 C 170.627 164.642,169.896 167.021,169.351 168.097 C 168.733 169.317,168.223 171.246,167.999 173.213 C 167.797 174.981,167.127 177.653,166.477 179.285 C 165.838 180.888,165.004 183.606,164.625 185.326 C 164.245 187.045,163.426 189.565,162.806 190.926 C 162.156 192.349,161.564 194.504,161.411 196.000 C 161.217 197.896,160.819 199.110,159.942 200.482 C 159.085 201.824,158.624 203.202,158.337 205.282 C 157.374 212.277,151.539 215.700,146.201 212.401 C 141.485 209.486,141.381 204.324,145.777 191.400 C 147.514 186.293,150.294 177.359,150.631 175.800 C 150.774 175.140,151.963 171.360,153.274 167.400 C 154.585 163.440,156.367 157.590,157.234 154.400 C 161.600 138.331,163.630 134.486,170.822 128.667 C 177.614 123.171,187.673 120.525,194.532 122.430 M226.258 122.945 C 237.258 125.355,246.371 134.478,248.401 145.112 C 248.703 146.690,248.801 158.411,248.719 182.866 L 248.600 218.331 247.394 220.047 C 244.110 224.719,237.079 224.748,233.876 220.102 C 231.986 217.360,231.939 216.486,232.024 185.800 C 232.080 165.821,231.972 156.669,231.670 155.921 C 231.043 154.362,229.477 153.423,228.436 153.981 C 226.519 155.006,226.612 151.077,226.400 240.200 L 226.200 324.200 225.272 325.938 C 220.378 335.109,209.192 335.358,204.542 326.400 L 203.400 324.200 203.400 224.729 L 203.400 125.259 204.237 124.129 C 205.666 122.204,206.991 121.973,215.600 122.154 C 220.607 122.260,224.423 122.543,226.258 122.945 " stroke="none" fill="#991b1e" fill-rule="evenodd"></path></g></svg>