<svg id="svg" version="1.1" xmlns="http://www.w3.org/2000/svg" xmlns:xlink="http://www.w3.org/1999/xlink" width="400" height="403.2520325203252" viewBox="0, 0, 400,403.2520325203252"><g id="svgg"><path id="path0" d="M168.600 102.868 C 167.280 103.078,164.130 103.145,161.600 103.019 C 153.221 102.598,149.417 105.533,145.186 115.683 C 143.197 120.456,141.078 124.270,138.853 127.086 C 135.985 130.714,135.601 131.845,135.594 136.684 C 135.582 145.403,131.046 157.544,125.208 164.484 C 121.308 169.120,121.059 169.739,120.957 175.031 C 120.805 182.941,116.709 194.917,111.472 202.761 C 108.407 207.351,108.001 208.450,107.997 212.160 C 107.990 219.014,103.893 230.124,97.581 240.400 C 93.150 247.615,93.459 246.692,93.364 252.973 C 93.313 256.288,93.001 259.997,92.603 262.000 C 89.748 276.378,95.011 288.484,107.681 296.680 C 117.010 302.715,112.360 302.373,185.200 302.386 C 253.670 302.399,250.661 302.516,256.636 299.603 C 268.349 293.891,269.174 292.177,283.204 244.400 C 284.335 240.550,285.786 235.808,286.430 233.862 C 287.073 231.915,289.051 225.435,290.826 219.462 C 295.670 203.152,297.520 197.033,299.010 192.400 C 304.020 176.815,307.438 164.868,307.957 161.123 C 309.063 153.144,304.215 144.156,299.451 145.352 C 298.258 145.651,298.311 145.508,294.388 159.000 C 292.596 165.160,289.809 174.430,288.195 179.600 C 286.581 184.770,283.608 194.580,281.589 201.400 C 279.569 208.220,276.945 216.825,275.757 220.522 C 274.570 224.219,272.414 231.239,270.968 236.122 C 257.285 282.309,257.160 282.626,251.464 285.371 C 247.583 287.242,247.706 287.239,182.400 287.106 C 114.543 286.967,120.244 287.177,113.812 284.573 C 106.204 281.493,103.351 272.749,109.000 269.827 C 110.592 269.004,110.896 268.999,172.200 268.800 C 229.506 268.614,233.921 268.552,235.538 267.904 C 240.930 265.746,243.300 263.458,245.997 257.805 C 248.783 251.966,250.270 247.509,256.875 225.200 C 257.754 222.230,259.792 215.570,261.404 210.400 C 263.015 205.230,265.173 198.120,266.199 194.600 C 268.146 187.920,270.245 180.993,274.807 166.200 C 276.299 161.360,278.702 153.440,280.145 148.600 C 281.589 143.760,283.778 136.470,285.009 132.400 C 289.987 115.946,287.267 108.225,274.809 103.447 C 272.359 102.508,174.241 101.973,168.600 102.868 M254.256 136.370 C 257.345 137.772,257.360 141.498,254.299 147.583 C 251.348 153.450,252.965 153.261,207.000 153.115 C 166.979 152.989,168.531 153.086,167.201 150.603 C 165.339 147.123,168.929 137.917,172.803 136.237 C 175.198 135.198,251.951 135.323,254.256 136.370 M242.913 168.945 C 246.694 170.545,246.604 175.927,242.688 182.406 C 240.203 186.518,243.878 186.182,199.800 186.319 C 157.934 186.449,158.404 186.465,156.735 184.797 C 153.513 181.574,158.082 170.342,163.215 168.870 C 165.559 168.197,241.315 168.269,242.913 168.945 " stroke="none" fill="#ffffff" fill-rule="evenodd"></path><path id="path1" d="M0.000 201.600 L 0.000 403.200 200.000 403.200 L 400.000 403.200 400.000 201.600 L 400.000 0.000 200.000 0.000 L 0.000 0.000 0.000 201.600 M274.809 103.447 C 287.267 108.225,289.987 115.946,285.009 132.400 C 283.778 136.470,281.589 143.760,280.145 148.600 C 278.702 153.440,276.299 161.360,274.807 166.200 C 270.245 180.993,268.146 187.920,266.199 194.600 C 265.173 198.120,263.015 205.230,261.404 210.400 C 259.792 215.570,257.754 222.230,256.875 225.200 C 250.270 247.509,248.783 251.966,245.997 257.805 C 243.300 263.458,240.930 265.746,235.538 267.904 C 233.921 268.552,229.506 268.614,172.200 268.800 C 110.896 268.999,110.592 269.004,109.000 269.827 C 103.351 272.749,106.204 281.493,113.812 284.573 C 120.244 287.177,114.543 286.967,182.400 287.106 C 247.706 287.239,247.583 287.242,251.464 285.371 C 257.160 282.626,257.285 282.309,270.968 236.122 C 272.414 231.239,274.570 224.219,275.757 220.522 C 276.945 216.825,279.569 208.220,281.589 201.400 C 283.608 194.580,286.581 184.770,288.195 179.600 C 289.809 174.430,292.596 165.160,294.388 159.000 C 298.311 145.508,298.258 145.651,299.451 145.352 C 304.215 144.156,309.063 153.144,307.957 161.123 C 307.438 164.868,304.020 176.815,299.010 192.400 C 297.520 197.033,295.670 203.152,290.826 219.462 C 289.051 225.435,287.073 231.915,286.430 233.862 C 285.786 235.808,284.335 240.550,283.204 244.400 C 269.174 292.177,268.349 293.891,256.636 299.603 C 250.661 302.516,253.670 302.399,185.200 302.386 C 112.360 302.373,117.010 302.715,107.681 296.680 C 95.011 288.484,89.748 276.378,92.603 262.000 C 93.001 259.997,93.313 256.288,93.364 252.973 C 93.459 246.692,93.150 247.615,97.581 240.400 C 103.893 230.124,107.990 219.014,107.997 212.160 C 108.001 208.450,108.407 207.351,111.472 202.761 C 116.709 194.917,120.805 182.941,120.957 175.031 C 121.059 169.739,121.308 169.120,125.208 164.484 C 131.046 157.544,135.582 145.403,135.594 136.684 C 135.601 131.845,135.985 130.714,138.853 127.086 C 141.078 124.270,143.197 120.456,145.186 115.683 C 149.417 105.533,153.221 102.598,161.600 103.019 C 164.130 103.145,167.280 103.078,168.600 102.868 C 174.241 101.973,272.359 102.508,274.809 103.447 M172.803 136.237 C 168.929 137.917,165.339 147.123,167.201 150.603 C 168.531 153.086,166.979 152.989,207.000 153.115 C 252.965 153.261,251.348 153.450,254.299 147.583 C 257.360 141.498,257.345 137.772,254.256 136.370 C 251.951 135.323,175.198 135.198,172.803 136.237 M163.215 168.870 C 158.082 170.342,153.513 181.574,156.735 184.797 C 158.404 186.465,157.934 186.449,199.800 186.319 C 243.878 186.182,240.203 186.518,242.688 182.406 C 246.604 175.927,246.694 170.545,242.913 168.945 C 241.315 168.269,165.559 168.197,163.215 168.870 " stroke="none" fill="#991b1e" fill-rule="evenodd"></path></g></svg>