<svg id="svg" version="1.1" xmlns="http://www.w3.org/2000/svg" xmlns:xlink="http://www.w3.org/1999/xlink" width="400" height="403.2520325203252" viewBox="0, 0, 400,403.2520325203252"><g id="svgg"><path id="path0" d="M81.099 120.171 C 78.843 120.976,76.980 122.576,76.041 124.515 L 75.200 126.253 75.200 202.539 C 75.200 286.745,75.000 280.312,77.703 283.104 C 79.818 285.290,74.275 285.195,200.615 285.198 L 319.430 285.200 321.211 284.300 C 322.436 283.680,323.366 282.787,324.195 281.431 L 325.400 279.463 325.518 203.431 C 325.601 149.464,325.509 126.963,325.200 125.893 C 324.596 123.807,322.581 121.648,320.203 120.541 L 318.200 119.608 200.400 119.621 C 103.026 119.633,82.340 119.728,81.099 120.171 M272.023 136.000 C 274.221 136.610,275.475 138.214,276.200 141.339 C 279.437 155.297,289.327 165.430,302.247 168.029 C 309.865 169.562,309.243 166.417,309.110 202.711 C 308.977 238.782,309.809 235.255,300.874 237.652 C 288.153 241.065,279.955 249.497,276.634 262.586 C 275.558 266.823,274.946 268.024,273.312 269.094 C 271.552 270.248,130.394 270.389,127.796 269.239 C 125.796 268.355,125.107 267.252,124.399 263.800 C 121.774 251.002,112.490 241.020,100.196 237.779 C 90.996 235.353,91.822 238.762,91.693 202.705 C 91.562 166.466,90.961 169.566,98.416 168.048 C 111.533 165.377,121.085 155.635,124.355 141.590 C 125.156 138.153,125.883 137.007,127.800 136.161 C 129.307 135.496,269.643 135.339,272.023 136.000 M191.458 150.025 C 176.053 154.156,164.209 169.305,160.049 190.200 C 154.355 218.795,169.245 249.594,191.584 255.430 C 194.180 256.108,206.029 256.204,208.781 255.570 C 228.499 251.026,243.939 223.717,241.620 197.487 C 238.717 164.652,216.235 143.380,191.458 150.025 M206.196 165.773 C 208.883 166.895,208.800 165.985,208.800 194.193 C 208.800 225.892,207.973 222.841,216.677 223.240 C 224.794 223.612,226.358 224.835,225.879 230.435 C 225.353 236.580,226.095 236.405,200.740 236.377 C 174.904 236.350,175.583 236.513,175.266 230.239 C 174.991 224.794,176.364 223.702,183.926 223.351 C 192.181 222.969,191.751 223.719,191.934 209.400 C 192.102 196.281,191.843 191.989,190.807 190.709 L 190.085 189.818 187.935 190.709 C 184.090 192.302,182.631 191.853,179.033 187.966 C 174.337 182.894,174.812 181.817,186.268 171.567 C 192.060 166.385,193.205 165.646,196.185 165.170 C 198.897 164.737,204.529 165.076,206.196 165.773 " stroke="none" fill="#ffffff" fill-rule="evenodd"></path><path id="path1" d="M0.000 201.600 L 0.000 403.200 200.000 403.200 L 400.000 403.200 400.000 201.600 L 400.000 0.000 200.000 0.000 L 0.000 0.000 0.000 201.600 M320.203 120.541 C 322.581 121.648,324.596 123.807,325.200 125.893 C 325.509 126.963,325.601 149.464,325.518 203.431 L 325.400 279.463 324.195 281.431 C 323.366 282.787,322.436 283.680,321.211 284.300 L 319.430 285.200 200.615 285.198 C 74.275 285.195,79.818 285.290,77.703 283.104 C 75.000 280.312,75.200 286.745,75.200 202.539 L 75.200 126.253 76.041 124.515 C 76.980 122.576,78.843 120.976,81.099 120.171 C 82.340 119.728,103.026 119.633,200.400 119.621 L 318.200 119.608 320.203 120.541 M127.800 136.161 C 125.883 137.007,125.156 138.153,124.355 141.590 C 121.085 155.635,111.533 165.377,98.416 168.048 C 90.961 169.566,91.562 166.466,91.693 202.705 C 91.822 238.762,90.996 235.353,100.196 237.779 C 112.490 241.020,121.774 251.002,124.399 263.800 C 125.107 267.252,125.796 268.355,127.796 269.239 C 130.394 270.389,271.552 270.248,273.312 269.094 C 274.946 268.024,275.558 266.823,276.634 262.586 C 279.955 249.497,288.153 241.065,300.874 237.652 C 309.809 235.255,308.977 238.782,309.110 202.711 C 309.243 166.417,309.865 169.562,302.247 168.029 C 289.327 165.430,279.437 155.297,276.200 141.339 C 275.475 138.214,274.221 136.610,272.023 136.000 C 269.643 135.339,129.307 135.496,127.800 136.161 M208.124 149.803 C 226.061 153.825,239.444 172.876,241.620 197.487 C 243.939 223.717,228.499 251.026,208.781 255.570 C 206.029 256.204,194.180 256.108,191.584 255.430 C 169.245 249.594,154.355 218.795,160.049 190.200 C 165.797 161.333,185.542 144.741,208.124 149.803 M196.185 165.170 C 193.205 165.646,192.060 166.385,186.268 171.567 C 174.812 181.817,174.337 182.894,179.033 187.966 C 182.631 191.853,184.090 192.302,187.935 190.709 L 190.085 189.818 190.807 190.709 C 191.843 191.989,192.102 196.281,191.934 209.400 C 191.751 223.719,192.181 222.969,183.926 223.351 C 176.364 223.702,174.991 224.794,175.266 230.239 C 175.583 236.513,174.904 236.350,200.740 236.377 C 226.095 236.405,225.353 236.580,225.879 230.435 C 226.358 224.835,224.794 223.612,216.677 223.240 C 207.973 222.841,208.800 225.892,208.800 194.193 C 208.800 165.985,208.883 166.895,206.196 165.773 C 204.529 165.076,198.897 164.737,196.185 165.170 " stroke="none" fill="#991b1e" fill-rule="evenodd"></path></g></svg>