<svg id="svg" version="1.1" xmlns="http://www.w3.org/2000/svg" xmlns:xlink="http://www.w3.org/1999/xlink" width="400" height="403.2520325203252" viewBox="0, 0, 400,403.2520325203252"><g id="svgg"><path id="path0" d="M196.981 88.453 C 194.178 90.230,146.374 138.098,145.011 140.492 C 142.901 144.197,144.058 148.210,147.800 150.164 C 149.278 150.936,150.242 151.015,160.400 151.200 C 172.012 151.411,172.595 151.506,173.818 153.372 C 175.113 155.347,174.890 155.601,149.195 181.400 C 123.589 207.111,123.106 207.658,123.057 211.006 C 122.971 216.978,125.011 217.741,141.788 218.018 C 155.216 218.239,156.123 218.336,156.811 219.621 C 158.236 222.284,157.475 223.176,131.690 249.068 C 118.050 262.764,107.437 273.735,107.061 274.528 C 105.578 277.654,106.506 281.271,109.329 283.363 C 110.444 284.190,110.809 284.202,139.929 284.400 C 177.212 284.653,173.914 283.639,173.603 294.748 C 173.006 316.049,173.189 316.710,179.965 317.649 C 185.867 318.467,222.740 317.931,224.595 317.000 C 228.164 315.209,228.784 310.591,227.546 295.003 C 226.661 283.852,224.101 284.652,261.471 284.400 C 290.657 284.203,291.160 284.187,292.246 283.375 C 295.131 281.221,295.965 277.884,294.396 274.771 C 293.782 273.551,286.061 265.527,269.602 249.000 C 246.209 225.512,244.400 223.530,244.400 221.394 C 244.400 218.308,244.628 218.257,259.600 218.013 C 276.120 217.742,278.404 216.896,278.398 211.041 C 278.394 207.492,281.125 210.503,243.694 172.775 C 230.443 159.418,227.200 155.945,227.200 155.108 C 227.200 151.688,228.068 151.446,241.200 151.196 C 253.375 150.965,253.550 150.929,255.921 148.229 C 258.055 145.798,258.001 142.296,255.785 139.358 C 253.743 136.651,206.481 89.626,204.622 88.451 C 201.912 86.738,199.684 86.738,196.981 88.453 " stroke="none" fill="#ffffff" fill-rule="evenodd"></path><path id="path1" d="M0.000 201.600 L 0.000 403.200 200.000 403.200 L 400.000 403.200 400.000 201.600 L 400.000 0.000 200.000 0.000 L 0.000 0.000 0.000 201.600 M204.622 88.451 C 206.481 89.626,253.743 136.651,255.785 139.358 C 258.001 142.296,258.055 145.798,255.921 148.229 C 253.550 150.929,253.375 150.965,241.200 151.196 C 228.068 151.446,227.200 151.688,227.200 155.108 C 227.200 155.945,230.443 159.418,243.694 172.775 C 281.125 210.503,278.394 207.492,278.398 211.041 C 278.404 216.896,276.120 217.742,259.600 218.013 C 244.628 218.257,244.400 218.308,244.400 221.394 C 244.400 223.530,246.209 225.512,269.602 249.000 C 286.061 265.527,293.782 273.551,294.396 274.771 C 295.965 277.884,295.131 281.221,292.246 283.375 C 291.160 284.187,290.657 284.203,261.471 284.400 C 224.101 284.652,226.661 283.852,227.546 295.003 C 228.784 310.591,228.164 315.209,224.595 317.000 C 222.740 317.931,185.867 318.467,179.965 317.649 C 173.189 316.710,173.006 316.049,173.603 294.748 C 173.914 283.639,177.212 284.653,139.929 284.400 C 110.809 284.202,110.444 284.190,109.329 283.363 C 106.506 281.271,105.578 277.654,107.061 274.528 C 107.437 273.735,118.050 262.764,131.690 249.068 C 157.475 223.176,158.236 222.284,156.811 219.621 C 156.123 218.336,155.216 218.239,141.788 218.018 C 125.011 217.741,122.971 216.978,123.057 211.006 C 123.106 207.658,123.589 207.111,149.195 181.400 C 174.890 155.601,175.113 155.347,173.818 153.372 C 172.595 151.506,172.012 151.411,160.400 151.200 C 147.935 150.973,147.253 150.819,145.067 147.725 C 141.719 142.987,141.783 142.903,170.547 114.153 C 199.806 84.907,199.446 85.179,204.622 88.451 " stroke="none" fill="#991b1e" fill-rule="evenodd"></path></g></svg>