<svg id="svg" version="1.1" xmlns="http://www.w3.org/2000/svg" xmlns:xlink="http://www.w3.org/1999/xlink" width="400" height="403.2520325203252" viewBox="0, 0, 400,403.2520325203252"><g id="svgg"><path id="path0" d="M233.200 67.773 C 215.698 70.446,205.454 77.679,198.541 92.244 C 195.525 98.597,194.213 98.667,189.270 92.743 C 181.481 83.406,171.900 77.571,169.619 80.774 C 166.636 84.963,167.113 86.467,172.776 90.728 C 185.101 100.002,192.232 113.869,194.439 132.852 C 195.382 140.968,193.881 142.332,187.513 139.146 C 167.360 129.062,138.917 130.701,119.732 143.050 C 100.979 155.122,87.169 178.623,84.622 202.800 C 84.286 205.990,83.834 209.950,83.618 211.600 C 82.958 216.639,83.159 224.530,84.204 234.600 C 85.633 248.378,86.210 250.887,91.541 266.508 C 99.740 290.537,118.977 313.097,136.543 319.285 C 149.424 323.823,166.661 322.728,178.825 316.600 C 180.268 315.872,183.418 314.585,185.825 313.739 L 190.200 312.200 200.400 312.202 L 210.600 312.205 214.400 313.547 C 216.490 314.285,219.820 315.659,221.800 316.600 C 236.527 323.599,256.010 323.923,268.855 317.382 C 278.219 312.614,289.943 301.450,296.979 290.600 C 298.263 288.620,300.008 285.944,300.857 284.654 C 301.706 283.364,302.400 282.161,302.400 281.980 C 302.400 281.799,303.730 278.886,305.355 275.506 C 307.105 271.867,309.079 266.922,310.194 263.381 C 311.229 260.091,312.604 255.711,313.249 253.647 C 321.089 228.554,318.063 193.419,306.155 171.295 C 301.653 162.930,299.609 160.140,292.800 153.063 C 272.383 131.842,238.687 126.404,211.662 139.969 C 205.448 143.087,204.778 142.574,204.030 134.121 C 203.373 126.696,203.611 126.439,211.580 125.984 C 217.031 125.673,224.720 123.882,228.170 122.120 C 244.606 113.727,252.800 98.898,252.800 77.547 C 252.800 71.115,252.466 69.984,250.096 68.401 C 248.288 67.193,239.206 66.855,233.200 67.773 M154.911 165.602 C 156.775 167.068,156.685 171.758,154.758 173.553 C 154.311 173.969,152.203 174.790,150.073 175.378 C 139.322 178.344,130.275 189.226,127.774 202.200 C 127.434 203.960,126.815 207.110,126.398 209.200 C 125.981 211.290,125.519 213.810,125.372 214.800 C 124.595 220.026,121.930 221.886,117.665 220.179 C 115.485 219.307,114.988 218.135,115.060 214.033 C 115.130 209.990,116.828 199.652,117.794 197.384 C 118.165 196.513,119.014 194.270,119.680 192.400 C 124.354 179.286,134.319 168.930,145.226 165.852 C 149.703 164.588,153.498 164.490,154.911 165.602 " stroke="none" fill="#fbfafa" fill-rule="evenodd"></path><path id="path1" d="M0.000 201.600 L 0.000 403.200 200.000 403.200 L 400.000 403.200 400.000 201.600 L 400.000 0.000 200.000 0.000 L 0.000 0.000 0.000 201.600 M250.096 68.401 C 252.466 69.984,252.800 71.115,252.800 77.547 C 252.800 98.898,244.606 113.727,228.170 122.120 C 224.720 123.882,217.031 125.673,211.580 125.984 C 203.611 126.439,203.373 126.696,204.030 134.121 C 204.778 142.574,205.448 143.087,211.662 139.969 C 235.352 128.078,264.330 130.677,285.800 146.618 C 312.741 166.622,325.228 215.308,313.249 253.647 C 312.604 255.711,311.229 260.091,310.194 263.381 C 309.079 266.922,307.105 271.867,305.355 275.506 C 303.730 278.886,302.400 281.799,302.400 281.980 C 302.400 282.161,301.706 283.364,300.857 284.654 C 300.008 285.944,298.263 288.620,296.979 290.600 C 289.943 301.450,278.219 312.614,268.855 317.382 C 256.010 323.923,236.527 323.599,221.800 316.600 C 219.820 315.659,216.490 314.285,214.400 313.547 L 210.600 312.205 200.400 312.202 L 190.200 312.200 185.825 313.739 C 183.418 314.585,180.268 315.872,178.825 316.600 C 169.701 321.196,154.946 323.287,144.543 321.458 C 114.832 316.234,88.784 278.737,84.204 234.600 C 83.159 224.530,82.958 216.639,83.618 211.600 C 83.834 209.950,84.286 205.990,84.622 202.800 C 87.169 178.623,100.979 155.122,119.732 143.050 C 138.917 130.701,167.360 129.062,187.513 139.146 C 193.881 142.332,195.382 140.968,194.439 132.852 C 192.232 113.869,185.101 100.002,172.776 90.728 C 167.113 86.467,166.636 84.963,169.619 80.774 C 171.900 77.571,181.481 83.406,189.270 92.743 C 194.213 98.667,195.525 98.597,198.541 92.244 C 206.632 75.197,221.018 67.061,242.600 67.327 C 248.270 67.397,248.682 67.456,250.096 68.401 M148.600 165.079 C 136.763 166.649,124.845 177.907,119.680 192.400 C 119.014 194.270,118.165 196.513,117.794 197.384 C 116.828 199.652,115.130 209.990,115.060 214.033 C 114.988 218.135,115.485 219.307,117.665 220.179 C 121.930 221.886,124.595 220.026,125.372 214.800 C 125.519 213.810,125.981 211.290,126.398 209.200 C 126.815 207.110,127.434 203.960,127.774 202.200 C 130.275 189.226,139.322 178.344,150.073 175.378 C 154.438 174.174,155.380 173.504,156.013 171.153 C 157.356 166.164,154.997 164.231,148.600 165.079 " stroke="none" fill="#991b1e" fill-rule="evenodd"></path></g></svg>