<svg id="svg" version="1.1" xmlns="http://www.w3.org/2000/svg" xmlns:xlink="http://www.w3.org/1999/xlink" width="400" height="403.2520325203252" viewBox="0, 0, 400,403.2520325203252"><g id="svgg"><path id="path0" d="M166.137 101.613 C 162.601 102.320,159.515 104.701,158.120 107.800 C 157.468 109.249,157.381 111.246,157.200 129.000 C 156.946 153.850,158.250 151.295,145.639 151.666 C 128.323 152.174,128.198 152.239,110.069 170.196 C 89.160 190.907,90.752 186.577,90.431 223.600 C 90.172 253.487,90.398 251.428,87.124 253.651 C 81.935 257.175,81.008 262.597,84.849 266.961 C 87.153 269.578,88.880 270.000,97.285 270.000 C 106.400 270.000,107.228 270.363,107.783 274.600 C 110.473 295.099,130.537 307.331,152.600 301.923 C 162.654 299.458,172.744 288.375,175.447 276.827 C 177.166 269.480,175.425 269.918,202.291 270.079 L 222.382 270.200 223.440 271.258 C 224.297 272.115,224.601 272.986,225.045 275.858 C 227.135 289.361,238.898 300.575,253.360 302.849 L 258.920 303.724 264.560 302.821 C 278.513 300.589,289.594 290.385,292.405 277.180 C 293.969 269.832,293.055 270.253,307.994 270.000 C 321.736 269.768,322.589 269.562,325.072 265.879 C 327.293 262.586,327.222 265.431,327.107 184.600 L 327.000 109.400 325.835 107.298 C 324.603 105.074,323.330 103.917,320.400 102.358 L 318.600 101.400 243.200 101.341 C 201.730 101.308,167.052 101.431,166.137 101.613 M254.504 120.422 C 257.365 121.217,257.375 121.273,257.600 136.673 L 257.800 150.383 258.908 151.492 L 260.017 152.600 273.779 152.800 C 292.330 153.070,290.936 151.878,291.133 167.630 C 291.369 186.420,292.522 185.246,273.508 185.570 L 260.017 185.800 258.908 186.908 L 257.800 188.017 257.600 201.727 C 257.334 219.976,258.804 218.394,242.108 218.398 C 225.645 218.401,226.801 219.615,226.798 202.313 C 226.794 184.232,228.380 185.871,210.619 185.592 C 191.873 185.297,193.400 186.750,193.400 169.200 C 193.400 151.650,191.873 153.103,210.619 152.808 C 228.375 152.529,226.794 154.156,226.798 136.160 C 226.800 122.396,226.885 121.886,229.354 120.765 C 231.270 119.895,251.608 119.618,254.504 120.422 M155.336 170.121 C 157.151 171.311,157.238 172.086,157.115 186.058 L 157.000 199.183 155.891 200.291 L 154.782 201.400 134.044 201.510 C 109.972 201.638,109.355 201.535,110.209 197.516 C 110.553 195.899,134.012 172.056,136.600 170.694 C 139.774 169.023,153.042 168.617,155.336 170.121 M148.643 255.297 C 160.546 261.467,160.095 277.909,147.857 283.972 C 132.644 291.508,118.879 270.254,131.142 258.164 C 135.536 253.833,143.350 252.553,148.643 255.297 M265.968 255.409 C 278.308 262.189,276.570 279.756,263.052 284.893 C 251.550 289.264,239.299 274.631,244.734 263.015 C 248.445 255.084,258.695 251.413,265.968 255.409 " stroke="none" fill="#ffffff" fill-rule="evenodd"></path><path id="path1" d="M0.000 201.600 L 0.000 403.200 200.000 403.200 L 400.000 403.200 400.000 201.600 L 400.000 0.000 200.000 0.000 L 0.000 0.000 0.000 201.600 M320.400 102.358 C 323.330 103.917,324.603 105.074,325.835 107.298 L 327.000 109.400 327.107 184.600 C 327.222 265.431,327.293 262.586,325.072 265.879 C 322.589 269.562,321.736 269.768,307.994 270.000 C 293.055 270.253,293.969 269.832,292.405 277.180 C 289.594 290.385,278.513 300.589,264.560 302.821 L 258.920 303.724 253.360 302.849 C 238.898 300.575,227.135 289.361,225.045 275.858 C 224.601 272.986,224.297 272.115,223.440 271.258 L 222.382 270.200 202.291 270.079 C 175.425 269.918,177.166 269.480,175.447 276.827 C 172.744 288.375,162.654 299.458,152.600 301.923 C 130.537 307.331,110.473 295.099,107.783 274.600 C 107.228 270.363,106.400 270.000,97.285 270.000 C 88.880 270.000,87.153 269.578,84.849 266.961 C 81.008 262.597,81.935 257.175,87.124 253.651 C 90.398 251.428,90.172 253.487,90.431 223.600 C 90.752 186.577,89.160 190.907,110.069 170.196 C 128.198 152.239,128.323 152.174,145.639 151.666 C 158.250 151.295,156.946 153.850,157.200 129.000 C 157.436 105.886,157.513 105.533,162.937 102.738 C 165.716 101.306,167.150 101.281,243.200 101.341 L 318.600 101.400 320.400 102.358 M229.354 120.765 C 226.885 121.886,226.800 122.396,226.798 136.160 C 226.794 154.156,228.375 152.529,210.619 152.808 C 191.873 153.103,193.400 151.650,193.400 169.200 C 193.400 186.750,191.873 185.297,210.619 185.592 C 228.380 185.871,226.794 184.232,226.798 202.313 C 226.801 219.615,225.645 218.401,242.108 218.398 C 258.804 218.394,257.334 219.976,257.600 201.727 L 257.800 188.017 258.908 186.908 L 260.017 185.800 273.508 185.570 C 292.522 185.246,291.369 186.420,291.133 167.630 C 290.936 151.878,292.330 153.070,273.779 152.800 L 260.017 152.600 258.908 151.492 L 257.800 150.383 257.600 136.673 C 257.375 121.273,257.365 121.217,254.504 120.422 C 251.608 119.618,231.270 119.895,229.354 120.765 M139.800 169.556 C 136.681 170.132,134.961 171.575,122.745 183.868 C 104.284 202.444,103.788 201.671,134.044 201.510 L 154.782 201.400 155.891 200.291 L 157.000 199.183 157.115 186.058 C 157.238 172.086,157.151 171.311,155.336 170.121 C 154.137 169.335,143.159 168.936,139.800 169.556 M135.369 255.166 C 126.372 259.707,123.563 270.829,129.408 278.768 C 139.704 292.755,160.443 282.766,156.795 265.577 C 154.860 256.457,143.627 250.999,135.369 255.166 M252.400 255.251 C 240.102 261.454,240.414 277.810,252.950 284.021 C 265.652 290.315,279.068 275.384,272.596 262.156 C 269.079 254.967,259.473 251.683,252.400 255.251 " stroke="none" fill="#991b1e" fill-rule="evenodd"></path></g></svg>