<svg id="svg" version="1.1" xmlns="http://www.w3.org/2000/svg" xmlns:xlink="http://www.w3.org/1999/xlink" width="400" height="403.2520325203252" viewBox="0, 0, 400,403.2520325203252"><g id="svgg"><path id="path0" d="M197.200 118.022 C 192.875 118.896,189.280 121.213,180.175 128.993 C 177.081 131.637,171.698 136.140,168.211 139.000 C 164.725 141.860,160.237 145.610,158.237 147.332 C 156.236 149.055,152.530 152.139,150.000 154.185 C 147.470 156.230,143.944 159.141,142.164 160.652 C 140.384 162.163,136.984 165.020,134.608 167.000 C 132.232 168.980,127.598 172.850,124.310 175.600 C 121.022 178.350,116.024 182.490,113.202 184.800 C 90.946 203.020,91.397 202.240,98.254 210.679 C 104.749 218.673,107.693 219.334,113.600 214.125 C 114.590 213.252,120.440 208.345,126.600 203.220 C 132.760 198.096,139.402 192.530,141.360 190.852 C 143.318 189.173,147.673 185.550,151.038 182.800 C 154.402 180.050,159.617 175.730,162.626 173.200 C 177.786 160.454,187.038 152.759,194.729 146.501 C 199.789 142.383,200.256 142.467,207.904 148.859 C 224.847 163.021,228.305 165.900,234.019 170.600 C 237.496 173.460,242.480 177.600,245.095 179.800 C 247.710 182.000,251.728 185.359,254.025 187.265 C 262.077 193.948,274.661 204.466,281.116 209.907 C 292.707 219.679,294.243 219.820,301.077 211.737 C 305.669 206.305,306.450 204.112,304.932 200.912 C 304.250 199.476,303.637 198.936,289.591 187.403 C 279.621 179.217,277.015 176.680,276.444 174.600 C 276.147 173.519,276.003 165.082,276.000 148.600 C 275.995 122.161,275.980 121.968,273.799 120.053 C 271.832 118.326,270.744 118.200,257.800 118.200 C 240.806 118.200,241.501 117.634,241.179 131.728 C 240.809 147.964,241.825 148.081,219.887 129.272 C 208.213 119.262,203.247 116.800,197.200 118.022 M197.430 153.815 C 196.026 154.547,191.044 158.506,181.600 166.394 C 177.750 169.609,173.778 172.861,172.774 173.620 C 171.770 174.379,168.980 176.656,166.574 178.680 C 164.168 180.704,159.404 184.664,155.987 187.480 C 152.570 190.296,146.900 194.970,143.387 197.866 C 139.874 200.762,134.371 205.298,131.157 207.945 C 123.350 214.377,124.200 209.475,124.200 248.066 L 124.200 280.731 125.418 282.466 C 126.088 283.420,127.438 284.650,128.418 285.200 L 130.200 286.200 155.400 286.200 C 183.274 286.200,182.806 286.240,183.849 283.744 C 184.293 282.682,184.400 278.391,184.400 261.673 C 184.400 239.549,184.444 239.019,186.373 237.879 C 188.444 236.656,212.371 236.869,213.830 238.124 C 215.447 239.515,215.550 241.004,215.576 263.331 L 215.600 283.662 216.732 284.793 C 218.361 286.422,219.216 286.468,245.800 286.326 C 271.441 286.189,270.639 286.261,273.134 283.875 C 275.979 281.155,275.786 283.553,275.926 249.200 C 276.086 209.932,277.264 214.919,265.600 205.473 C 262.410 202.889,257.730 199.054,255.200 196.950 C 252.670 194.846,247.389 190.487,243.464 187.263 C 236.548 181.580,228.370 174.825,219.421 167.400 C 217.034 165.420,213.623 162.660,211.841 161.266 C 210.058 159.872,207.602 157.867,206.383 156.810 C 202.183 153.171,200.040 152.454,197.430 153.815 " stroke="none" fill="#ffffff" fill-rule="evenodd"></path><path id="path1" d="M0.000 201.600 L 0.000 403.200 200.000 403.200 L 400.000 403.200 400.000 201.600 L 400.000 0.000 200.000 0.000 L 0.000 0.000 0.000 201.600 M204.000 118.476 C 207.971 119.706,211.630 122.192,219.887 129.272 C 241.825 148.081,240.809 147.964,241.179 131.728 C 241.501 117.634,240.806 118.200,257.800 118.200 C 270.744 118.200,271.832 118.326,273.799 120.053 C 275.980 121.968,275.995 122.161,276.000 148.600 C 276.003 165.082,276.147 173.519,276.444 174.600 C 277.015 176.680,279.621 179.217,289.591 187.403 C 303.637 198.936,304.250 199.476,304.932 200.912 C 306.450 204.112,305.669 206.305,301.077 211.737 C 294.243 219.820,292.707 219.679,281.116 209.907 C 274.661 204.466,262.077 193.948,254.025 187.265 C 251.728 185.359,247.710 182.000,245.095 179.800 C 242.480 177.600,237.496 173.460,234.019 170.600 C 228.305 165.900,224.847 163.021,207.904 148.859 C 200.256 142.467,199.789 142.383,194.729 146.501 C 187.038 152.759,177.786 160.454,162.626 173.200 C 159.617 175.730,154.402 180.050,151.038 182.800 C 147.673 185.550,143.318 189.173,141.360 190.852 C 139.402 192.530,132.760 198.096,126.600 203.220 C 120.440 208.345,114.590 213.252,113.600 214.125 C 107.693 219.334,104.749 218.673,98.254 210.679 C 91.397 202.240,90.946 203.020,113.202 184.800 C 116.024 182.490,121.022 178.350,124.310 175.600 C 127.598 172.850,132.232 168.980,134.608 167.000 C 136.984 165.020,140.384 162.163,142.164 160.652 C 143.944 159.141,147.470 156.230,150.000 154.185 C 152.530 152.139,156.236 149.055,158.237 147.332 C 160.237 145.610,164.725 141.860,168.211 139.000 C 171.698 136.140,177.081 131.637,180.175 128.993 C 192.640 118.341,197.143 116.353,204.000 118.476 M202.783 154.046 C 203.543 154.509,205.163 155.753,206.383 156.810 C 207.602 157.867,210.058 159.872,211.841 161.266 C 213.623 162.660,217.034 165.420,219.421 167.400 C 228.370 174.825,236.548 181.580,243.464 187.263 C 247.389 190.487,252.670 194.846,255.200 196.950 C 257.730 199.054,262.410 202.889,265.600 205.473 C 277.264 214.919,276.086 209.932,275.926 249.200 C 275.786 283.553,275.979 281.155,273.134 283.875 C 270.639 286.261,271.441 286.189,245.800 286.326 C 219.216 286.468,218.361 286.422,216.732 284.793 L 215.600 283.662 215.576 263.331 C 215.550 241.004,215.447 239.515,213.830 238.124 C 212.371 236.869,188.444 236.656,186.373 237.879 C 184.444 239.019,184.400 239.549,184.400 261.673 C 184.400 278.391,184.293 282.682,183.849 283.744 C 182.806 286.240,183.274 286.200,155.400 286.200 L 130.200 286.200 128.418 285.200 C 127.438 284.650,126.088 283.420,125.418 282.466 L 124.200 280.731 124.200 248.066 C 124.200 209.475,123.350 214.377,131.157 207.945 C 134.371 205.298,139.874 200.762,143.387 197.866 C 146.900 194.970,152.570 190.296,155.987 187.480 C 159.404 184.664,164.168 180.704,166.574 178.680 C 168.980 176.656,171.770 174.379,172.774 173.620 C 173.778 172.861,177.750 169.609,181.600 166.394 C 198.456 152.316,199.217 151.872,202.783 154.046 " stroke="none" fill="#991b1e" fill-rule="evenodd"></path></g></svg>