<svg id="svg" version="1.1" xmlns="http://www.w3.org/2000/svg" xmlns:xlink="http://www.w3.org/1999/xlink" width="400" height="403.2520325203252" viewBox="0, 0, 400,403.2520325203252"><g id="svgg"><path id="path0" d="M192.600 103.781 C 179.247 106.391,173.399 108.857,164.925 115.454 C 155.545 122.757,148.592 132.423,145.224 142.842 C 142.863 150.145,142.736 151.311,142.458 168.293 L 142.200 183.986 140.990 185.195 C 140.028 186.156,139.147 186.525,136.686 186.996 C 131.449 187.998,128.163 190.474,126.562 194.623 C 125.548 197.252,125.359 273.482,126.358 276.921 C 127.024 279.216,129.782 282.450,132.155 283.720 L 133.800 284.600 198.800 284.707 C 242.580 284.779,264.454 284.678,265.804 284.398 C 268.692 283.800,271.495 281.546,272.993 278.617 L 274.200 276.257 274.200 236.228 L 274.200 196.200 273.224 194.217 C 271.208 190.121,268.348 187.914,264.083 187.166 C 257.607 186.030,257.855 186.759,257.546 168.000 C 257.172 145.331,255.506 139.272,246.252 126.922 C 233.671 110.134,210.729 100.239,192.600 103.781 M210.298 128.084 C 221.035 131.463,230.413 140.949,232.953 151.000 C 234.673 157.803,235.131 181.796,233.590 184.324 C 231.898 187.099,233.145 187.000,200.000 187.000 L 170.200 187.000 168.557 186.121 C 165.850 184.672,165.800 184.372,165.800 169.400 C 165.800 154.208,166.049 152.407,169.025 146.072 C 173.656 136.213,182.101 129.653,193.800 126.829 C 197.455 125.947,205.434 126.554,210.298 128.084 " stroke="none" fill="#ffffff" fill-rule="evenodd"></path><path id="path1" d="M0.000 201.600 L 0.000 403.200 200.000 403.200 L 400.000 403.200 400.000 201.600 L 400.000 0.000 200.000 0.000 L 0.000 0.000 0.000 201.600 M212.617 104.925 C 226.673 108.155,237.489 115.228,246.252 126.922 C 255.506 139.272,257.172 145.331,257.546 168.000 C 257.855 186.759,257.607 186.030,264.083 187.166 C 268.348 187.914,271.208 190.121,273.224 194.217 L 274.200 196.200 274.200 236.228 L 274.200 276.257 272.993 278.617 C 271.495 281.546,268.692 283.800,265.804 284.398 C 264.454 284.678,242.580 284.779,198.800 284.707 L 133.800 284.600 132.155 283.720 C 129.782 282.450,127.024 279.216,126.358 276.921 C 125.359 273.482,125.548 197.252,126.562 194.623 C 128.163 190.474,131.449 187.998,136.686 186.996 C 139.147 186.525,140.028 186.156,140.990 185.195 L 142.200 183.986 142.458 168.293 C 142.736 151.311,142.863 150.145,145.224 142.842 C 151.012 124.938,167.660 109.397,185.400 105.336 C 193.915 103.386,195.183 103.228,201.000 103.388 C 205.585 103.514,207.691 103.793,212.617 104.925 M193.800 126.829 C 182.101 129.653,173.656 136.213,169.025 146.072 C 166.049 152.407,165.800 154.208,165.800 169.400 C 165.800 184.372,165.850 184.672,168.557 186.121 L 170.200 187.000 200.000 187.000 C 233.145 187.000,231.898 187.099,233.590 184.324 C 235.131 181.796,234.673 157.803,232.953 151.000 C 229.004 135.374,209.157 123.122,193.800 126.829 " stroke="none" fill="#991b1e" fill-rule="evenodd"></path></g></svg>