<svg id="svg" version="1.1" xmlns="http://www.w3.org/2000/svg" xmlns:xlink="http://www.w3.org/1999/xlink" width="400" height="403.2520325203252" viewBox="0, 0, 400,403.2520325203252"><g id="svgg"><path id="path0" d="M157.400 118.262 C 143.086 120.381,136.261 124.268,121.546 138.683 C 117.446 142.699,113.576 146.213,112.946 146.492 C 112.072 146.880,105.343 147.047,84.600 147.200 C 59.547 147.384,57.274 147.457,55.800 148.119 C 52.891 149.425,51.256 150.831,50.213 152.924 L 49.200 154.957 49.202 200.179 C 49.204 229.280,49.348 245.917,49.607 246.849 C 50.195 248.967,52.817 251.731,55.285 252.834 L 57.400 253.779 80.600 253.989 C 105.449 254.215,104.314 254.116,107.000 256.290 C 107.660 256.824,111.351 260.352,115.201 264.130 C 119.052 267.909,126.972 275.681,132.801 281.403 C 156.241 304.408,166.365 309.620,186.600 309.095 C 194.615 308.887,194.333 308.940,201.800 306.266 C 203.340 305.715,206.220 305.070,208.200 304.834 C 217.981 303.667,225.938 299.987,233.957 292.922 C 235.817 291.283,237.486 290.201,238.885 289.726 C 245.128 287.608,251.787 283.145,256.537 277.893 C 259.803 274.282,260.231 274.013,264.577 272.827 C 272.480 270.671,279.179 265.673,284.355 258.073 C 287.284 253.772,283.784 254.232,315.542 253.968 C 335.318 253.804,343.820 253.599,344.849 253.263 C 346.759 252.640,349.812 249.917,350.917 247.851 L 351.800 246.200 351.907 203.427 C 352.025 156.199,352.108 157.890,349.540 155.263 C 346.151 151.796,344.701 151.616,320.200 151.605 C 306.664 151.599,299.262 151.448,298.200 151.157 C 296.313 150.639,293.996 148.377,285.863 139.111 C 278.742 130.997,272.656 125.959,265.800 122.501 C 263.255 121.218,262.712 121.044,255.800 119.306 L 251.400 118.200 235.600 118.208 L 219.800 118.216 214.600 119.534 C 211.740 120.259,207.960 121.501,206.200 122.294 C 201.485 124.419,200.121 124.437,195.450 122.442 C 187.284 118.953,183.411 118.300,170.200 118.185 C 163.820 118.130,158.060 118.165,157.400 118.262 M182.600 137.400 C 186.087 139.144,183.771 143.054,170.670 157.543 C 159.459 169.942,157.284 174.224,156.928 184.600 C 155.912 214.275,190.883 231.087,214.896 212.468 C 216.159 211.489,220.059 207.518,223.564 203.644 C 236.377 189.480,235.467 189.634,243.912 200.200 C 246.022 202.840,248.851 206.260,250.199 207.800 C 251.546 209.340,254.742 213.390,257.301 216.800 C 259.860 220.210,263.053 224.350,264.398 226.000 C 265.742 227.650,267.597 230.516,268.521 232.370 C 274.272 243.913,265.652 256.757,252.131 256.792 C 248.101 256.802,247.376 257.307,244.652 261.993 C 240.912 268.431,235.386 272.413,229.172 273.147 C 225.314 273.603,223.800 274.401,222.468 276.683 C 218.569 283.361,212.928 286.400,204.432 286.400 L 200.231 286.400 195.988 288.406 C 180.273 295.834,168.781 291.123,145.224 267.600 C 116.373 238.790,113.924 236.692,107.609 235.375 C 104.186 234.661,103.123 234.193,102.378 233.072 C 101.671 232.006,101.284 170.484,101.973 168.672 C 102.792 166.517,103.902 166.219,111.982 165.986 C 121.395 165.714,119.761 166.695,133.639 152.988 L 145.078 141.690 149.720 139.380 C 155.295 136.606,156.461 136.453,171.400 136.543 C 180.132 136.595,181.145 136.672,182.600 137.400 M258.000 139.193 C 263.098 141.854,265.827 144.466,277.866 158.200 C 287.305 168.969,287.067 168.793,292.812 169.218 C 297.550 169.569,299.002 170.161,299.505 171.949 C 300.247 174.592,299.839 231.776,299.069 232.951 C 297.680 235.070,294.560 235.738,291.593 234.550 C 289.825 233.843,289.403 233.221,287.795 228.949 C 285.733 223.468,281.831 217.342,275.599 209.800 C 274.145 208.040,272.258 205.610,271.407 204.400 C 268.589 200.397,259.323 189.091,254.034 183.200 C 248.659 177.215,248.569 177.064,247.010 171.469 C 245.728 166.872,240.851 163.717,236.723 164.815 C 232.675 165.891,229.548 168.482,223.134 176.073 C 220.302 179.425,219.099 180.776,208.704 192.286 C 201.771 199.962,198.942 201.600,192.613 201.600 C 186.235 201.600,181.483 199.121,178.073 194.014 C 173.187 186.697,174.578 181.235,184.046 170.568 C 186.991 167.250,191.154 162.390,193.299 159.768 C 197.187 155.013,201.518 150.121,206.939 144.359 C 209.762 141.358,213.862 138.536,217.106 137.360 C 218.292 136.930,222.226 136.837,236.200 136.909 L 253.800 137.000 258.000 139.193 M79.096 221.842 C 82.871 224.593,82.753 231.412,78.891 233.685 C 72.618 237.377,65.627 230.870,68.900 224.386 C 70.632 220.955,76.030 219.608,79.096 221.842 M329.120 221.362 C 333.931 223.865,333.913 231.826,329.092 234.014 C 322.698 236.917,316.554 230.618,319.700 224.386 C 321.278 221.259,326.005 219.742,329.120 221.362 " stroke="none" fill="#ffffff" fill-rule="evenodd"></path><path id="path1" d="M0.000 201.600 L 0.000 403.200 200.000 403.200 L 400.000 403.200 400.000 201.600 L 400.000 0.000 200.000 0.000 L 0.000 0.000 0.000 201.600 M186.695 119.539 C 189.387 120.229,193.327 121.535,195.450 122.442 C 200.121 124.437,201.485 124.419,206.200 122.294 C 207.960 121.501,211.740 120.259,214.600 119.534 L 219.800 118.216 235.600 118.208 L 251.400 118.200 255.800 119.306 C 262.712 121.044,263.255 121.218,265.800 122.501 C 272.656 125.959,278.742 130.997,285.863 139.111 C 293.996 148.377,296.313 150.639,298.200 151.157 C 299.262 151.448,306.664 151.599,320.200 151.605 C 344.701 151.616,346.151 151.796,349.540 155.263 C 352.108 157.890,352.025 156.199,351.907 203.427 L 351.800 246.200 350.917 247.851 C 349.812 249.917,346.759 252.640,344.849 253.263 C 343.820 253.599,335.318 253.804,315.542 253.968 C 283.784 254.232,287.284 253.772,284.355 258.073 C 279.179 265.673,272.480 270.671,264.577 272.827 C 260.231 274.013,259.803 274.282,256.537 277.893 C 251.787 283.145,245.128 287.608,238.885 289.726 C 237.486 290.201,235.817 291.283,233.957 292.922 C 225.938 299.987,217.981 303.667,208.200 304.834 C 206.220 305.070,203.340 305.715,201.800 306.266 C 194.333 308.940,194.615 308.887,186.600 309.095 C 166.365 309.620,156.241 304.408,132.801 281.403 C 126.972 275.681,119.052 267.909,115.201 264.130 C 111.351 260.352,107.660 256.824,107.000 256.290 C 104.314 254.116,105.449 254.215,80.600 253.989 L 57.400 253.779 55.285 252.834 C 52.817 251.731,50.195 248.967,49.607 246.849 C 49.348 245.917,49.204 229.280,49.202 200.179 L 49.200 154.957 50.213 152.924 C 51.256 150.831,52.891 149.425,55.800 148.119 C 57.274 147.457,59.547 147.384,84.600 147.200 C 105.343 147.047,112.072 146.880,112.946 146.492 C 113.576 146.213,117.446 142.699,121.546 138.683 C 136.261 124.268,143.086 120.381,157.400 118.262 C 162.666 117.483,181.946 118.323,186.695 119.539 M158.081 136.778 C 154.626 137.049,154.033 137.234,149.720 139.380 L 145.078 141.690 133.639 152.988 C 119.761 166.695,121.395 165.714,111.982 165.986 C 103.902 166.219,102.792 166.517,101.973 168.672 C 101.284 170.484,101.671 232.006,102.378 233.072 C 103.123 234.193,104.186 234.661,107.609 235.375 C 113.924 236.692,116.373 238.790,145.224 267.600 C 168.781 291.123,180.273 295.834,195.988 288.406 L 200.231 286.400 204.432 286.400 C 212.928 286.400,218.569 283.361,222.468 276.683 C 223.800 274.401,225.314 273.603,229.172 273.147 C 235.386 272.413,240.912 268.431,244.652 261.993 C 247.376 257.307,248.101 256.802,252.131 256.792 C 265.652 256.757,274.272 243.913,268.521 232.370 C 267.597 230.516,265.742 227.650,264.398 226.000 C 263.053 224.350,259.860 220.210,257.301 216.800 C 254.742 213.390,251.546 209.340,250.199 207.800 C 248.851 206.260,246.022 202.840,243.912 200.200 C 235.467 189.634,236.377 189.480,223.564 203.644 C 213.973 214.247,211.035 216.293,201.750 218.840 C 169.460 227.697,143.695 191.748,163.695 165.743 C 165.073 163.952,168.211 160.262,170.670 157.543 C 180.240 146.960,184.698 140.888,184.335 138.932 C 183.928 136.731,171.573 135.717,158.081 136.778 M217.106 137.360 C 213.862 138.536,209.762 141.358,206.939 144.359 C 201.518 150.121,197.187 155.013,193.299 159.768 C 191.154 162.390,186.991 167.250,184.046 170.568 C 174.578 181.235,173.187 186.697,178.073 194.014 C 181.483 199.121,186.235 201.600,192.613 201.600 C 198.942 201.600,201.771 199.962,208.704 192.286 C 219.099 180.776,220.302 179.425,223.134 176.073 C 229.548 168.482,232.675 165.891,236.723 164.815 C 240.851 163.717,245.728 166.872,247.010 171.469 C 248.569 177.064,248.659 177.215,254.034 183.200 C 259.323 189.091,268.589 200.397,271.407 204.400 C 272.258 205.610,274.145 208.040,275.599 209.800 C 281.831 217.342,285.733 223.468,287.795 228.949 C 289.403 233.221,289.825 233.843,291.593 234.550 C 294.560 235.738,297.680 235.070,299.069 232.951 C 299.839 231.776,300.247 174.592,299.505 171.949 C 299.002 170.161,297.550 169.569,292.812 169.218 C 287.067 168.793,287.305 168.969,277.866 158.200 C 265.827 144.466,263.098 141.854,258.000 139.193 L 253.800 137.000 236.200 136.909 C 222.226 136.837,218.292 136.930,217.106 137.360 M71.400 221.685 C 67.440 223.957,66.868 229.967,70.335 232.884 C 74.978 236.791,81.288 234.284,81.857 228.307 C 82.398 222.612,76.403 218.815,71.400 221.685 M322.200 221.708 C 320.316 222.762,318.800 225.415,318.800 227.659 C 318.800 236.178,331.364 237.383,332.623 228.985 C 333.548 222.821,327.615 218.679,322.200 221.708 " stroke="none" fill="#991b1e" fill-rule="evenodd"></path></g></svg>