<svg id="svg" version="1.1" xmlns="http://www.w3.org/2000/svg" xmlns:xlink="http://www.w3.org/1999/xlink" width="400" height="403.2520325203252" viewBox="0, 0, 400,403.2520325203252"><g id="svgg"><path id="path0" d="M145.733 101.602 C 134.732 103.211,123.167 110.315,117.375 119.020 C 113.585 124.716,112.028 129.155,108.402 144.600 C 106.738 151.691,104.855 159.250,103.571 164.000 C 102.947 166.310,102.082 169.840,101.648 171.844 C 99.273 182.824,97.973 184.951,93.380 185.376 C 87.264 185.943,86.668 186.099,82.320 188.275 C 75.071 191.904,69.340 198.271,66.727 205.600 L 65.800 208.200 65.800 237.239 C 65.800 272.677,64.967 269.543,74.499 269.981 C 79.383 270.206,79.643 270.262,80.699 271.316 L 81.800 272.417 82.039 282.108 C 82.230 289.871,82.417 292.198,82.980 293.800 C 90.877 316.295,120.879 318.461,131.742 297.320 C 133.338 294.214,133.716 291.594,133.960 281.941 C 134.228 271.370,134.274 271.206,137.160 270.404 C 139.138 269.855,260.462 269.855,262.440 270.404 C 265.275 271.192,265.373 271.508,265.629 280.741 C 265.886 289.991,266.389 292.772,268.641 297.409 C 277.013 314.646,300.489 317.133,312.486 302.055 C 317.244 296.076,317.670 294.570,317.985 282.600 C 318.319 269.945,318.030 270.392,326.131 269.975 C 335.317 269.501,334.600 272.210,334.600 238.000 C 334.600 206.791,334.718 208.205,331.575 201.705 C 327.642 193.571,316.462 185.626,308.920 185.605 C 302.440 185.586,301.290 184.194,298.738 173.271 C 298.291 171.362,297.413 167.820,296.786 165.400 C 296.159 162.980,294.752 157.310,293.659 152.800 C 287.065 125.599,286.569 124.203,280.969 117.000 C 274.502 108.684,264.751 103.093,254.141 101.617 C 250.649 101.131,149.046 101.118,145.733 101.602 M250.989 137.400 C 253.270 138.549,253.730 139.626,256.209 149.622 C 257.434 154.560,259.700 163.562,261.246 169.626 C 264.355 181.820,264.487 183.210,262.671 184.560 L 261.541 185.400 200.271 185.400 C 133.136 185.400,137.092 185.543,136.225 183.080 C 135.733 181.679,135.877 181.015,141.535 158.688 C 147.065 136.870,146.816 137.414,151.579 136.784 C 157.545 135.996,249.330 136.565,250.989 137.400 M115.600 209.062 C 136.296 218.484,128.828 248.992,106.200 247.461 C 85.703 246.075,82.113 215.713,101.609 208.642 C 104.300 207.666,113.114 207.931,115.600 209.062 M298.072 208.542 C 307.325 211.326,313.528 222.829,311.004 232.519 C 304.918 255.887,271.551 250.740,272.476 226.576 C 272.964 213.842,285.750 204.833,298.072 208.542 " stroke="none" fill="#ffffff" fill-rule="evenodd"></path><path id="path1" d="M0.000 201.600 L 0.000 403.200 200.000 403.200 L 400.000 403.200 400.000 201.600 L 400.000 0.000 200.000 0.000 L 0.000 0.000 0.000 201.600 M254.141 101.617 C 268.651 103.635,281.073 113.158,286.539 126.456 C 288.117 130.295,288.949 133.374,293.659 152.800 C 294.752 157.310,296.159 162.980,296.786 165.400 C 297.413 167.820,298.291 171.362,298.738 173.271 C 301.290 184.194,302.440 185.586,308.920 185.605 C 316.462 185.626,327.642 193.571,331.575 201.705 C 334.718 208.205,334.600 206.791,334.600 238.000 C 334.600 272.210,335.317 269.501,326.131 269.975 C 318.030 270.392,318.319 269.945,317.985 282.600 C 317.670 294.570,317.244 296.076,312.486 302.055 C 300.489 317.133,277.013 314.646,268.641 297.409 C 266.389 292.772,265.886 289.991,265.629 280.741 C 265.373 271.508,265.275 271.192,262.440 270.404 C 260.462 269.855,139.138 269.855,137.160 270.404 C 134.274 271.206,134.228 271.370,133.960 281.941 C 133.716 291.594,133.338 294.214,131.742 297.320 C 120.879 318.461,90.877 316.295,82.980 293.800 C 82.417 292.198,82.230 289.871,82.039 282.108 L 81.800 272.417 80.699 271.316 C 79.643 270.262,79.383 270.206,74.499 269.981 C 64.967 269.543,65.800 272.677,65.800 237.239 L 65.800 208.200 66.727 205.600 C 69.340 198.271,75.071 191.904,82.320 188.275 C 86.668 186.099,87.264 185.943,93.380 185.376 C 97.973 184.951,99.273 182.824,101.648 171.844 C 102.082 169.840,102.947 166.310,103.571 164.000 C 104.855 159.250,106.738 151.691,108.402 144.600 C 112.028 129.155,113.585 124.716,117.375 119.020 C 123.167 110.315,134.732 103.211,145.733 101.602 C 149.046 101.118,250.649 101.131,254.141 101.617 M151.579 136.784 C 146.816 137.414,147.065 136.870,141.535 158.688 C 135.877 181.015,135.733 181.679,136.225 183.080 C 137.092 185.543,133.136 185.400,200.271 185.400 L 261.541 185.400 262.671 184.560 C 264.487 183.210,264.355 181.820,261.246 169.626 C 259.700 163.562,257.434 154.560,256.209 149.622 C 253.730 139.626,253.270 138.549,250.989 137.400 C 249.330 136.565,157.545 135.996,151.579 136.784 M101.609 208.642 C 82.113 215.713,85.703 246.075,106.200 247.461 C 128.828 248.992,136.296 218.484,115.600 209.062 C 113.114 207.931,104.300 207.666,101.609 208.642 M285.765 208.730 C 273.757 212.880,268.522 227.579,275.255 238.240 C 284.682 253.166,306.537 249.668,311.004 232.519 C 314.878 217.649,300.142 203.760,285.765 208.730 " stroke="none" fill="#991b1e" fill-rule="evenodd"></path></g></svg>